<svg width="425" height="440" viewBox="0 0 425 440" fill="none" xmlns="http://www.w3.org/2000/svg">
<g filter="url(#filter0_d_1_287)">
<path d="M254.037 250.436C248.912 244.07 243.78 237.727 238.656 231.369C237.448 229.876 235.039 230.932 235.332 232.818C236.423 239.854 237.536 246.874 238.641 253.917C238.802 254.944 239.776 255.643 240.808 255.475C244.834 254.798 248.861 254.114 252.88 253.444C254.293 253.203 254.93 251.55 254.037 250.436ZM145.908 85.8625C144.07 95.0755 141.625 105.192 141.178 107.034C141.142 107.202 140.966 107.274 140.827 107.202L128.645 101.084C127.51 100.516 127.298 99.001 128.235 98.1562C131.39 95.3013 137.774 89.453 142.804 84.2967C142.818 84.2821 142.833 84.2676 142.855 84.253C144.129 83.0076 146.252 84.1146 145.908 85.8625ZM409.041 98.1635C398.931 82.7673 386.896 68.733 373.272 56.4029C372.591 55.7912 371.851 55.3105 371.068 54.9536C367.1 53.1256 362.122 54.4875 359.647 58.3766C354.948 65.7616 350.526 73.314 343.117 77.742C332.07 84.3404 314.632 84.2748 311.886 97.457C310.869 102.366 312.626 107.376 316.022 111.076C324.515 120.326 336.96 121.214 347.246 126.727C351.353 128.934 355.174 131.898 359.728 132.94C370.673 135.43 380.431 126.319 388.499 118.541C393.236 113.975 399.29 109.481 405.454 107.675C407.951 106.947 409.612 104.856 409.978 102.533C410.213 101.077 409.934 99.5254 409.041 98.1635ZM420.967 301.263C420.828 298.54 420.001 296.063 418.822 293.682C416.055 288.242 411.34 283.42 408.331 277.943C400.059 263.064 404.729 243.706 397.042 228.485C389.077 212.601 368.894 203.577 365.885 186.083C363.945 174.751 369.069 160.251 359.757 153.39C357.056 151.395 353.659 150.637 350.438 149.778C333.022 144.986 317.655 134.928 302.589 125.045C296.637 121.119 290.407 116.917 286.973 110.646C284.103 105.381 283.511 99.2122 283.24 93.2183C282.061 68.4563 287.178 41.1888 293.818 17.3153C293.826 17.2861 293.833 17.257 293.84 17.2279C295.019 12.8363 292.779 8.21157 288.577 6.41997C280.18 2.83675 270.633 1.62049 261.372 0.506199C249.476 -0.928545 237.162 0.899479 226.005 3.32471C217.301 5.18914 206.261 10.1416 192.249 9.97405C183.127 9.88666 174.371 6.98804 165.527 4.57009C160.637 3.23731 155.718 2.05019 150.695 1.56951C132.767 -0.149268 115.38 7.22109 98.3439 13.0038C90.2837 15.7276 82.0038 18.0727 73.5189 19.0341C69.2289 19.5511 64.9389 19.6895 60.6415 19.3108C58.5331 19.0996 56.4174 18.7937 54.3749 18.3422C52.6764 17.9635 49.1844 16.0043 47.625 16.2447C41.7024 17.1405 53.7892 28.9899 56.249 30.6795C62.2009 34.7725 69.4339 37.0812 76.6376 37.6348C83.4972 38.1883 90.3203 37.4891 97.1433 36.4403C103.857 35.3989 110.555 34.0078 117.283 33.1193C117.525 33.0902 117.766 33.061 118.008 33.0246C127.005 31.9249 132.503 42.3614 126.661 49.2584C125.46 50.6713 124.392 52.1861 123.484 53.7519C116.939 65.0478 115.936 78.5869 112.612 91.2301C108.805 105.694 101.777 119.299 92.1871 130.806C83.5631 141.169 72.4135 150.746 76.1178 166.9C77.8163 174.409 82.6627 180.92 89.1709 185.086C105.862 195.697 126.288 191.116 142.108 181.473C152.526 175.137 165.052 166.361 175.469 173.746C178.749 176.069 180.909 179.725 181.663 183.658C182.658 188.807 181.736 193.687 179.81 198.217C178.742 200.744 181.319 203.169 183.881 202.164C197.996 196.622 215.397 199.273 230.749 203.031C237.814 204.757 245.047 206.723 250.933 210.991C261.599 218.74 265.889 232.52 274.616 242.403C289.396 259.175 313.877 262.241 335.481 268.17C339.918 269.371 345.006 271.476 345.943 275.955C346.492 278.533 345.423 281.155 344.383 283.602C341.99 289.108 339.64 294.621 337.246 300.135C332.612 310.95 327.311 322.522 317.062 328.342C305.363 334.954 290.89 332.202 277.456 331.269C271.599 330.854 265.23 331.131 259.418 332.58C249.337 335.056 249.791 349.491 259.901 351.764C269.491 353.934 279.601 354.036 289.191 351.938C291.029 351.523 292.72 353.111 292.237 354.895C290.194 362.164 283.65 367.99 276.482 370.983C268.071 374.494 258.795 375.047 249.754 376.395C232.411 378.944 217.593 377.858 202.19 386.227C189.796 392.978 177.124 401.761 163.068 400.319C143.536 398.353 131.698 377.654 127.642 358.573C123.594 339.455 121.544 325.45 111.192 308.845C106.829 301.926 100.877 296.1 96.6821 289.043C92.4946 282.015 90.2837 272.955 94.1564 265.759C96.3014 261.797 100.145 258.593 96.6162 252.322C94.6103 248.812 91.3159 246.19 87.5091 244.711C72.5159 238.892 62.7719 232.862 49.9604 223.044C38.2543 214.021 28.7006 201.378 26.3799 186.812C25.3989 180.556 25.9333 170.068 26.4311 163.433C26.4458 163.28 26.4458 163.12 26.4458 162.967C26.4458 159.799 23.964 157.134 20.7282 156.915C20.3768 156.893 19.7838 156.893 19.0004 156.93C14.6006 157.126 10.8743 160.192 9.82741 164.438C9.82009 164.468 9.81276 164.497 9.80544 164.533C9.54189 165.633 9.29298 166.747 9.04407 167.854C8.81713 168.896 8.5975 169.93 8.3852 170.971C8.29003 171.445 8.19485 171.918 8.107 172.391C7.98255 172.974 7.87274 173.564 7.76292 174.154C7.65311 174.707 7.55062 175.268 7.45545 175.829C7.34563 176.404 7.24314 176.98 7.14797 177.555C7.0528 178.065 6.97227 178.575 6.89174 179.084C6.73068 180.009 6.58426 180.927 6.45249 181.859C6.45249 181.888 6.43785 181.918 6.43785 181.954C6.28411 182.944 6.13769 183.942 6.00592 184.94C5.91074 185.552 5.83754 186.156 5.75701 186.797C5.66184 187.511 5.57399 188.225 5.49346 188.946C5.47149 189.157 5.44221 189.368 5.42025 189.587C5.31775 190.468 5.22258 191.356 5.12741 192.245C5.0542 192.98 4.981 193.716 4.91511 194.452C4.90047 194.546 4.89315 194.641 4.89315 194.736C4.85654 195.085 4.82726 195.435 4.79797 195.784C4.71744 196.709 4.64424 197.627 4.57835 198.552C4.49782 199.601 4.43193 200.657 4.36604 201.705V201.727C4.30748 202.791 4.24891 203.854 4.20498 204.917C4.15374 205.98 4.11713 207.044 4.08785 208.114C4.05857 209.032 4.0366 209.942 4.02196 210.86C4.02196 211.13 4.02196 211.399 4.02196 211.676C4.00732 212.623 4 213.577 4 214.538C4 334.641 101.865 432 222.586 432C225.427 432 228.245 431.949 231.057 431.84C232.975 431.767 234.878 431.672 236.774 431.548C239.556 431.374 242.323 431.141 245.076 430.864C246.277 430.74 247.463 430.609 248.656 430.471C256.738 429.516 264.689 428.118 272.478 426.305C273.554 426.057 274.63 425.802 275.706 425.533C276.958 425.22 278.218 424.899 279.469 424.564C279.953 424.433 280.428 424.302 280.904 424.171C281.746 423.945 282.588 423.712 283.423 423.472C284.594 423.129 285.758 422.78 286.922 422.43C287.537 422.241 288.152 422.051 288.767 421.855C289.375 421.665 289.989 421.469 290.604 421.265C291.219 421.068 291.827 420.864 292.435 420.66C296.695 419.233 300.905 417.674 305.048 415.992C305.641 415.752 306.234 415.511 306.82 415.264C308.592 414.528 310.341 413.771 312.091 412.991C312.67 412.737 313.248 412.474 313.826 412.205C314.405 411.943 314.983 411.673 315.561 411.404C315.664 411.36 315.766 411.309 315.876 411.258C317.494 410.493 319.105 409.714 320.701 408.913C321.272 408.629 321.835 408.345 322.399 408.054C322.963 407.77 323.526 407.478 324.09 407.18C324.207 407.129 324.317 407.07 324.427 407.005C325.437 406.473 326.44 405.934 327.443 405.395C328.548 404.791 329.654 404.179 330.759 403.545L332.407 402.606C332.956 402.285 333.497 401.965 334.039 401.645C334.588 401.324 335.13 401.004 335.672 400.676C337.29 399.7 338.9 398.702 340.496 397.683C341.558 397.005 342.619 396.313 343.666 395.622C344.72 394.922 345.76 394.216 346.799 393.502C347.839 392.788 348.864 392.068 349.889 391.339C350.914 390.604 351.931 389.868 352.942 389.118C353.959 388.368 354.962 387.61 355.958 386.846C357.092 385.979 358.22 385.09 359.347 384.195C360.189 383.517 361.031 382.84 361.858 382.155C362.722 381.449 363.579 380.735 364.428 380.007C364.677 379.803 364.926 379.592 365.175 379.373C365.987 378.674 366.793 377.975 367.591 377.269C368.381 376.569 369.172 375.87 369.948 375.156C370.812 374.377 371.668 373.583 372.518 372.782C372.869 372.462 373.213 372.134 373.557 371.806C373.564 371.799 373.579 371.792 373.586 371.777C374.282 371.114 374.977 370.444 375.666 369.782C375.761 369.68 375.856 369.592 375.951 369.498C376.822 368.645 377.679 367.793 378.528 366.927C379.414 366.038 380.285 365.135 381.149 364.232C381.969 363.373 382.774 362.513 383.572 361.647C383.77 361.435 383.967 361.217 384.172 360.998C384.846 360.263 385.512 359.527 386.171 358.784C387.057 357.794 387.928 356.796 388.792 355.791C389.59 354.866 390.38 353.934 391.164 352.987C391.962 352.026 392.76 351.05 393.543 350.074C394.326 349.098 395.102 348.108 395.871 347.117C396.603 346.17 397.328 345.223 398.045 344.262C398.902 343.119 399.744 341.968 400.578 340.81C401.215 339.921 401.852 339.018 402.482 338.115C402.526 338.05 402.577 337.984 402.621 337.911C403.316 336.906 404.005 335.901 404.685 334.882C405.374 333.855 406.054 332.821 406.721 331.779C406.743 331.743 406.765 331.714 406.787 331.677C407.416 330.708 408.031 329.74 408.631 328.764C408.822 328.458 409.012 328.152 409.202 327.846C409.693 327.052 410.176 326.251 410.659 325.443L410.813 325.181C411.355 324.278 411.889 323.36 412.416 322.442C412.636 322.064 412.848 321.685 413.068 321.306C413.522 320.505 413.976 319.697 414.422 318.881C414.913 317.992 415.396 317.097 415.872 316.194C416.099 315.786 416.311 315.378 416.531 314.963C416.589 314.853 416.648 314.737 416.706 314.628C417.102 313.863 417.497 313.098 417.878 312.334C418.068 311.969 418.251 311.605 418.434 311.234C418.815 310.476 419.188 309.726 419.554 308.962C419.627 308.809 419.701 308.663 419.774 308.51C420.008 308 420.213 307.476 420.352 306.944C420.835 305.08 421.084 303.186 420.974 301.263H420.967Z" fill="#373737"/>
</g>
<defs>
<filter id="filter0_d_1_287" x="0" y="0" width="425" height="440" filterUnits="userSpaceOnUse" color-interpolation-filters="sRGB">
<feFlood flood-opacity="0" result="BackgroundImageFix"/>
<feColorMatrix in="SourceAlpha" type="matrix" values="0 0 0 0 0 0 0 0 0 0 0 0 0 0 0 0 0 0 127 0" result="hardAlpha"/>
<feOffset dy="4"/>
<feGaussianBlur stdDeviation="2"/>
<feComposite in2="hardAlpha" operator="out"/>
<feColorMatrix type="matrix" values="0 0 0 0 0 0 0 0 0 0 0 0 0 0 0 0 0 0 0.25 0"/>
<feBlend mode="normal" in2="BackgroundImageFix" result="effect1_dropShadow_1_287"/>
<feBlend mode="normal" in="SourceGraphic" in2="effect1_dropShadow_1_287" result="shape"/>
</filter>
</defs>
</svg>
